/* XPM */
static char *result[] = {
/* columns rows colors chars-per-pixel */
"64 62 84 1 ",
"  c #192F3D",
". c #1B353E",
"X c #1E3B3F",
"o c #203E3F",
"O c #23433F",
"+ c #26483F",
"@ c #2A4E3F",
"# c #2C523F",
"$ c #31593F",
"% c #36623F",
"& c #39663F",
"* c #1E3C41",
"= c #203F42",
"- c #214242",
"; c #244B44",
": c #284E41",
"> c #265147",
", c #2B5342",
"< c #2E5C45",
"1 c #275348",
"2 c #285449",
"3 c #305E45",
"4 c #2E6047",
"5 c #336447",
"6 c #396740",
"7 c #366A47",
"8 c #3A6D46",
"9 c #3E6C48",
"0 c #3D7346",
"q c #3F7A46",
"w c #416E48",
"e c #417646",
"r c #437C46",
"t c #447249",
"y c #487349",
"u c #4E794A",
"i c #537C4A",
"p c #468146",
"a c #498446",
"s c #4D8B45",
"d c #508E45",
"f c #538249",
"g c #5A824B",
"h c #578949",
"j c #5B8B4A",
"k c #539445",
"l c #599546",
"z c #569945",
"x c #5B9B46",
"c c #5C9248",
"v c #60864C",
"b c #648B4C",
"n c #688F4D",
"m c #629E47",
"M c #6C934D",
"N c #649E48",
"B c #699E4A",
"V c #71974E",
"C c #729C4D",
"Z c #789F4F",
"A c #7A9F50",
"S c #66A148",
"D c #6BA349",
"F c #72A64B",
"G c #7AA44F",
"H c #75A94C",
"J c #7BAD4D",
"K c #7FB04E",
"L c #7CA250",
"P c #82B14F",
"I c #81A651",
"U c #84AA52",
"Y c #88AE52",
"T c #86B450",
"R c #8BB551",
"E c #8EB952",
"W c #92B655",
"Q c #94BD54",
"! c #99BE56",
"~ c #9CC356",
"^ c #A0C657",
"/ c #A2C758",
"( c #A4C858",
") c None",
/* pixels */
"))))))))))))))))))))))))))))))))))))))))))))))))))))))))))))))))",
"))))))))))))))))))))))))))))))))))))))))))))))))))))))))))))))))",
"))))))))))))))))))))))))))))))))))))))))))))))))))))))))))))))))",
"))))))z))z))z)zz)zz)z))z)kz)zz)z))z)zz)zk)z))z)z))z))z)k))))))))",
"))))/(DK(Em/JD^^RS~H~(SEH~~RS(H~/NEF~~RS/H~/NEF//ES/HH/!m^/)))))",
")))))Q((/(((((//(((((~(((((((((~/(/((((((((((/(//((/((//(~))))))",
")))))~(~~QD~/H(~S~~HK((~H(~S~(HJ/(/H(~S~~HJ///H(~ED/HJ////~)))))",
"))))/!~!x!(SD~~Y(SJ~~R(H(!Y(SH~~R(H/!T(SJ~~E(H~~mE/J~~T//E()))))",
"))))~P^(~z!0s~x8IfrQSzJM!m8Ifp!SzJM~x8UfpQSzHC!xx(F8WuU(/QR)))))",
")))))E^K~p0e7kqqa00dp4p00rraq0sp4a00rra00da4a0qetG0eqiETQ~))))))",
"))))//(~M0zk70rzakze0dadzezpkkeqdaazrkpkzr0daaxes7spzpa~/(()))))",
")))))m~^~hk0a8xs57k0zk55krs55k0lk75drd57k0zd55krkakssdW~(Dz)))))",
")))))~^Q~Qs7k0s:55,#k7:7,0;55,,z7>5#0;55,,k7:5,0rars4tHT//P)))))",
")))))m~UeEzs-<=-;*-=--;--:*:**=-O;;-:X:X---;;:->-:-0zd8D(D))))))",
"))))S(^PPHkk,-->;*==-;;-;*---;-->>=;1-=--=**1;->--XaxjTT!(P)))))",
")))))mSmQ~v3==->;-;>=;;=>;=-=>-;1====-1>=>>---=;--=#8~~mSm))))))",
")))))R^!xzz&*;-*-->>*-X;;-;*-X-**-*;*>-;-:->>-;;--=:kzkP(P))))))",
")))))/(^~d0@->;=*-=*5-O5< 5<5:5,,<:5:-55.3,=-*>>--o;7rE^/(/)))))",
")))))F~DEZkl#=-=;>*-558zr0za55kk85558zsq05765o*-1;odzjRPERD)))))",
"))))/H~~mez@=>;=-*<5q058daz7sa8ze555az7dz8kx7X-*--=oddsQ~S~)))))",
"))))/(S~/i55*12-;-;5zexa5a5rza5000zqr757k0s0O--;--o,5wW^F~()))))",
")))))(QPHBd----->-X3k5rzUsspe0s557sz3sCy770dp.-1;;oOpcHJQ())))))",
")))))R^~^Nzd--*--*557d9R!L~rg(BjxtjdL~J~j5zk;>-;->*ezlQ^~~))))))",
"))))((Jm~Y06,->*;>-5sxg(ML))~()(TV()WVj~~cr75->-;;*7ev/HD/()))))",
")))))S~RxRz5*->-=*-7zrxDu)))())/))())))Dhxs8+=-*>;OOdDHD~D))))))",
")))))(~PPHkk,-;*;*axcPT~(J))))))))))))((PPHkz,--=-oaxcPP~(P)))))",
")))))SSxQ~j3*--*-=#0~~mNS)))))))))))))SSx!~b5O=---=,0!^mSSx)))))",
")))))R^!xzl&*-;-=o#kzkR(P)))))))))))))E~~xzz&X;-===@kzzP(P))))))",
")))))/^/~d8@->;*-*+8rE(/(~))))))))))))//^~k8#=>;--*;7rR(~/()))))",
")))))H~DWGkz$=*>;odzjEPRED))))))))))))F~DELdz3*->;XdxhEPEED)))))",
"))))/J~Qmez#*>;;-=OdsdQ^S~)))))))))))~J~QDqz#*;;--=Odds!~S~)))))",
"))))/(S~^i53o;>--*,5wQ^D^()))))))))))//D!(i53o>2-=*:59E~H~()))))",
")))))/QPHBdO---->o+plHJQ/)))))))))))))(QTHDs;O-;->*;plHHQ^))))))",
")))))R^~^Nzd---->+&lxQ~/~)))))))))))))T(~^Nzdo===>O8zlQ^^~))))))",
"))))((JS~Y08,->;;Xwrb(HD/()))))))))))((PS~R0&,->;-X8ev/JD^()))))",
")))))S~RmRk3*-1>;=-sDHF^N)))))))))))))xQExEz5X-,1;=+kDHD^D))))))",
")))))((PPFkk,-->>-#aqs^Ez))))z)z))z)kzFKWFaz8>>*-;oazcPP~())))))",
")))))SDx!~j5*---=-;szz!R!z~RS~H~/xED~~~(RxzrX1--*--,9!^SNSm)))))",
")))))R^Qxzl%*;-;-X,4szP/((~((~((//(/(E(E(Tk74X;---*@kzzP(K))))))",
")))))^^^~d0@*>;>1*,5kE/P~P~D~(HK//(H(D(SP/zzO-1;*---6rP(///)))))",
")))))H~FWGdz$=*->-,kkWTzQJR(DJ!~Q/H/!NGzsJ9sa.==>;XdxhQPRED)))))",
"))))/H~QNqz#=;;-==,q8gqsxc7Yha!DzKB~mqaeqsa5X;;=;-=OdssQ~S~)))))",
"))))//S~^i55X;2-11*<aza5a5ea88da5s80a7707sxq=;>;*-=:59W~F~()))))",
")))))^QPHFs---;-1;o5za8sa5zakkr0spsle5kl05ae5--;-;o:rlJJE())))))",
")))))R/~/xld-*-***<<a57azrd57z0zk75zr7z8555-.====>*8xzQ~~~))))))",
"))))((PS~Rq8,-;--;**,5;<ae:55$,z8>7,eO53*<;*21=-;;Xerv/JF/()))))",
")))))S~PNRk<*-1-;>*-O;*,.-*:o=-:-;+-:==****-----2;oOsDHS~DS)))))",
")))))Q/HMsze=-;*;*;-->>-;>-;=;-->>-->-;*;**>>-->2-X5kkMm~/))))))",
"))))xDSz~U873X>--->-;>-------2-->=**-*-*>-;>-**--X<58b/xSSx)))))",
")))))E/JT(L5O;X-*-*-**-XO*-.-*-o*;*;*-*;*-**;*;**;X,n(!N~~))))))",
")))))(FzzBg533:5<5;5,>3,3:535>4,>3:5;7<5:3,,<;5;<:4<ijxxS~))))))",
")))))PH~/i57k58za55dd75558za55dd75558ka55dk75559kaq55tW~KHR)))))",
")))))~~m~Ed7d7az9sp0ze555az7sr0xe755az7sr0xr755az7kapD(HE~T)))))",
")))))~mzzTq055r7pzp5e00z0a7pza5000z0p7pza5000z0r70daiNDzz!~)))))",
")))))STJzBRdrp5ppr0s557kk<ppp0a557dk<par0a557dk<IJ80WA0NExH)))))",
"))))xT/Tz/~n~lI~ri~BfzehsL~ru/SfzthdL~ru~Dfz0hdA/IkjR/FD~~x)))))",
")))))ETzz()(/)(~)//)(UM(wR~)/()(UM(tR~)~()(PM(yR)))(M(HzH~P)))))",
"))))))k))B)/)))))())())())))/))/))())))())/))/))))))))))z)))))))",
"))))))))))))))))))))))))))))))))))))))))))))))))))))))))))))))))",
"))))))))))))))))))))))))))))))))))))))))))))))))))))))))))))))))",
"))))))))))))))))))))))))))))))))))))))))))))))))))))))))))))))))",
"))))))))))))))))))))))))))))))))))))))))))))))))))))))))))))))))"
};
